<svg xmlns="http://www.w3.org/2000/svg" xmlns:xlink="http://www.w3.org/1999/xlink" width="1000" zoomAndPan="magnify" viewBox="0 0 750 749.999995" height="1000" preserveAspectRatio="xMidYMid meet" version="1.0"><defs><g/></defs><g fill="#006c3f" fill-opacity="1"><g transform="translate(18.588416, 305.858664)"><g><path d="M 122.40625 3.328125 C 185.125 3.328125 214.796875 -37.6875 216.46875 -80.046875 C 216.8125 -91.0625 204.46875 -93.390625 198.125 -86.0625 C 188.453125 -72.046875 172.78125 -50.703125 141.75 -50.703125 C 103.734375 -50.703125 66.703125 -93.0625 66.703125 -158.09375 C 66.703125 -195.125 86.0625 -216.140625 107.0625 -216.140625 C 147.09375 -216.140625 146.421875 -149.765625 188.125 -149.765625 C 205.46875 -149.765625 215.8125 -160.765625 215.8125 -176.109375 C 215.8125 -211.140625 171.109375 -239.8125 119.078125 -239.8125 C 52.03125 -239.8125 8 -189.125 8 -121.40625 C 8 -56.703125 55.703125 3.328125 122.40625 3.328125 Z M 122.40625 3.328125 "/></g></g></g><g fill="#006c3f" fill-opacity="1"><g transform="translate(242.735993, 305.858664)"><g><path d="M 228.8125 -36.6875 L 228.8125 -230.484375 C 228.8125 -236.484375 223.8125 -238.484375 213.796875 -237.15625 L 164.4375 -230.484375 C 159.765625 -229.8125 153.765625 -226.484375 153.765625 -222.8125 L 153.765625 -221.46875 C 153.765625 -213.140625 170.109375 -208.796875 170.109375 -193.453125 L 170.109375 -78.71875 C 170.109375 -47.03125 156.765625 -18.671875 123.40625 -18.671875 C 99.734375 -18.671875 84.390625 -40.03125 84.71875 -78.390625 L 85.71875 -230.484375 C 85.71875 -236.484375 79.71875 -238.484375 69.71875 -237.15625 L 17.34375 -230.484375 C 12.671875 -229.8125 9.671875 -226.484375 9.671875 -222.8125 L 9.671875 -221.46875 C 9.671875 -213.140625 23.015625 -208.796875 23.015625 -193.453125 L 23.015625 -87.0625 C 23.015625 -29.015625 56.375 3.328125 106.40625 3.328125 C 144.09375 3.328125 165.765625 -9.671875 176.78125 -31.015625 C 178.109375 -3.328125 187.453125 2 209.140625 2 C 230.8125 2 243.828125 -0.328125 243.828125 -9 C 243.828125 -23.015625 228.8125 -9.671875 228.8125 -36.6875 Z M 228.8125 -36.6875 "/></g></g></g><g fill="#006c3f" fill-opacity="1"><g transform="translate(497.570393, 305.858664)"><g><path d="M 216.140625 -34.015625 C 214.796875 -64.375 201.796875 -88.71875 176.453125 -104.40625 C 198.796875 -118.40625 212.46875 -141.09375 212.46875 -161.4375 C 212.46875 -211.46875 172.4375 -236.8125 111.40625 -236.8125 L 21.6875 -236.8125 C 17.015625 -236.8125 13.671875 -234.484375 13.671875 -230.484375 L 13.671875 -229.140625 C 13.671875 -219.8125 27.015625 -215.8125 27.015625 -200.46875 L 27.015625 -36.359375 C 27.015625 -21.015625 13.671875 -17.015625 13.671875 -7.671875 L 13.671875 -6.34375 C 13.671875 -2.328125 17.015625 0 21.6875 0 L 95.0625 0 C 99.734375 0 103.0625 -2.328125 103.0625 -6.34375 L 103.0625 -7.671875 C 103.0625 -17.015625 88.0625 -21.015625 88.0625 -36.359375 L 88.0625 -90.0625 L 125.078125 -90.390625 C 145.09375 -79.71875 154.09375 -57.375 154.4375 -31.359375 C 154.4375 -19.34375 144.09375 -17.015625 144.09375 -7.671875 L 144.09375 -6.34375 C 144.09375 -2.328125 147.09375 0 152.09375 0 L 222.46875 0 C 227.140625 0 230.484375 -2.328125 230.484375 -6.34375 L 230.484375 -7.671875 C 230.484375 -17.015625 216.8125 -21.34375 216.140625 -34.015625 Z M 109.40625 -112.734375 C 95.390625 -112.734375 88.0625 -120.078125 88.0625 -139.421875 L 88.0625 -196.125 C 88.0625 -206.125 93.0625 -213.46875 100.734375 -213.46875 L 106.734375 -213.46875 C 127.078125 -213.46875 149.421875 -191.125 149.421875 -155.09375 C 149.421875 -126.421875 135.75 -112.734375 118.75 -112.734375 Z M 109.40625 -112.734375 "/></g></g></g><g fill="#006c3f" fill-opacity="1"><g transform="translate(36.107634, 655.842068)"><g><path d="M 110.078125 3.328125 C 159.4375 3.328125 201.796875 -21.6875 201.796875 -65.703125 C 201.796875 -159.109375 71.375 -117.40625 71.375 -188.78125 C 71.375 -205.125 81.390625 -218.140625 102.40625 -218.140625 C 143.765625 -218.140625 133.421875 -155.765625 173.78125 -155.765625 C 190.78125 -155.765625 199.125 -165.4375 199.125 -180.109375 C 199.46875 -210.46875 158.765625 -239.8125 103.40625 -239.8125 C 48.359375 -239.8125 13.015625 -210.140625 13.015625 -167.78125 C 13.34375 -70.046875 144.09375 -111.40625 144.09375 -46.359375 C 144.09375 -29.015625 131.75 -18.671875 112.40625 -18.671875 C 62.375 -18.671875 69.046875 -80.71875 33.015625 -81.046875 C 16.34375 -81.046875 9 -71.375 9 -57.375 C 9 -27.6875 49.03125 3.328125 110.078125 3.328125 Z M 110.078125 3.328125 "/></g></g></g><g fill="#006c3f" fill-opacity="1"><g transform="translate(247.580137, 655.842068)"><g><path d="M 228.8125 -36.6875 L 228.8125 -230.484375 C 228.8125 -236.484375 223.8125 -238.484375 213.796875 -237.15625 L 164.4375 -230.484375 C 159.765625 -229.8125 153.765625 -226.484375 153.765625 -222.8125 L 153.765625 -221.46875 C 153.765625 -213.140625 170.109375 -208.796875 170.109375 -193.453125 L 170.109375 -78.71875 C 170.109375 -47.03125 156.765625 -18.671875 123.40625 -18.671875 C 99.734375 -18.671875 84.390625 -40.03125 84.71875 -78.390625 L 85.71875 -230.484375 C 85.71875 -236.484375 79.71875 -238.484375 69.71875 -237.15625 L 17.34375 -230.484375 C 12.671875 -229.8125 9.671875 -226.484375 9.671875 -222.8125 L 9.671875 -221.46875 C 9.671875 -213.140625 23.015625 -208.796875 23.015625 -193.453125 L 23.015625 -87.0625 C 23.015625 -29.015625 56.375 3.328125 106.40625 3.328125 C 144.09375 3.328125 165.765625 -9.671875 176.78125 -31.015625 C 178.109375 -3.328125 187.453125 2 209.140625 2 C 230.8125 2 243.828125 -0.328125 243.828125 -9 C 243.828125 -23.015625 228.8125 -9.671875 228.8125 -36.6875 Z M 228.8125 -36.6875 "/></g></g></g><g fill="#006c3f" fill-opacity="1"><g transform="translate(502.414537, 655.842068)"><g><path d="M 110.078125 3.328125 C 159.4375 3.328125 201.796875 -21.6875 201.796875 -65.703125 C 201.796875 -159.109375 71.375 -117.40625 71.375 -188.78125 C 71.375 -205.125 81.390625 -218.140625 102.40625 -218.140625 C 143.765625 -218.140625 133.421875 -155.765625 173.78125 -155.765625 C 190.78125 -155.765625 199.125 -165.4375 199.125 -180.109375 C 199.46875 -210.46875 158.765625 -239.8125 103.40625 -239.8125 C 48.359375 -239.8125 13.015625 -210.140625 13.015625 -167.78125 C 13.34375 -70.046875 144.09375 -111.40625 144.09375 -46.359375 C 144.09375 -29.015625 131.75 -18.671875 112.40625 -18.671875 C 62.375 -18.671875 69.046875 -80.71875 33.015625 -81.046875 C 16.34375 -81.046875 9 -71.375 9 -57.375 C 9 -27.6875 49.03125 3.328125 110.078125 3.328125 Z M 110.078125 3.328125 "/></g></g></g></svg>