<svg xmlns="http://www.w3.org/2000/svg" xmlns:xlink="http://www.w3.org/1999/xlink" width="1720" zoomAndPan="magnify" viewBox="0 0 1290 374.999991" height="500" preserveAspectRatio="xMidYMid meet" version="1.0"><defs><g/></defs><g fill="#006c3f" fill-opacity="1"><g transform="translate(0.00001548, 284.843496)"><g><path d="M 113.5625 3.09375 C 171.734375 3.09375 199.265625 -34.96875 200.8125 -74.265625 C 201.125 -84.46875 189.671875 -86.640625 183.796875 -79.828125 C 174.828125 -66.828125 160.28125 -47.03125 131.5 -47.03125 C 96.234375 -47.03125 61.890625 -86.328125 61.890625 -146.671875 C 61.890625 -181.015625 79.828125 -200.5 99.328125 -200.5 C 136.453125 -200.5 135.84375 -138.9375 174.515625 -138.9375 C 190.609375 -138.9375 200.203125 -149.140625 200.203125 -163.375 C 200.203125 -195.859375 158.734375 -222.46875 110.46875 -222.46875 C 48.265625 -222.46875 7.421875 -175.4375 7.421875 -112.625 C 7.421875 -52.609375 51.671875 3.09375 113.5625 3.09375 Z M 113.5625 3.09375 "/></g></g></g><g fill="#006c3f" fill-opacity="1"><g transform="translate(207.932139, 284.843496)"><g><path d="M 212.265625 -34.03125 L 212.265625 -213.8125 C 212.265625 -219.375 207.625 -221.234375 198.34375 -220 L 152.546875 -213.8125 C 148.21875 -213.1875 142.640625 -210.09375 142.640625 -206.6875 L 142.640625 -205.453125 C 142.640625 -197.71875 157.8125 -193.703125 157.8125 -179.46875 L 157.8125 -73.03125 C 157.8125 -43.625 145.421875 -17.328125 114.484375 -17.328125 C 92.515625 -17.328125 78.28125 -37.125 78.59375 -72.71875 L 79.515625 -213.8125 C 79.515625 -219.375 73.953125 -221.234375 64.671875 -220 L 16.09375 -213.8125 C 11.765625 -213.1875 8.96875 -210.09375 8.96875 -206.6875 L 8.96875 -205.453125 C 8.96875 -197.71875 21.34375 -193.703125 21.34375 -179.46875 L 21.34375 -80.765625 C 21.34375 -26.921875 52.296875 3.09375 98.703125 3.09375 C 133.671875 3.09375 153.78125 -8.96875 164 -28.78125 C 165.234375 -3.09375 173.890625 1.859375 194 1.859375 C 214.125 1.859375 226.1875 -0.3125 226.1875 -8.359375 C 226.1875 -21.34375 212.265625 -8.96875 212.265625 -34.03125 Z M 212.265625 -34.03125 "/></g></g></g><g fill="#006c3f" fill-opacity="1"><g transform="translate(444.331173, 284.843496)"><g><path d="M 200.5 -31.5625 C 199.265625 -59.71875 187.203125 -82.3125 163.6875 -96.84375 C 184.421875 -109.84375 197.109375 -130.890625 197.109375 -149.765625 C 197.109375 -196.171875 159.96875 -219.6875 103.34375 -219.6875 L 20.109375 -219.6875 C 15.78125 -219.6875 12.6875 -217.53125 12.6875 -213.8125 L 12.6875 -212.578125 C 12.6875 -203.90625 25.0625 -200.203125 25.0625 -185.96875 L 25.0625 -33.734375 C 25.0625 -19.5 12.6875 -15.78125 12.6875 -7.109375 L 12.6875 -5.875 C 12.6875 -2.171875 15.78125 0 20.109375 0 L 88.1875 0 C 92.515625 0 95.609375 -2.171875 95.609375 -5.875 L 95.609375 -7.109375 C 95.609375 -15.78125 81.6875 -19.5 81.6875 -33.734375 L 81.6875 -83.546875 L 116.03125 -83.859375 C 134.59375 -73.953125 142.953125 -53.21875 143.265625 -29.078125 C 143.265625 -17.953125 133.671875 -15.78125 133.671875 -7.109375 L 133.671875 -5.875 C 133.671875 -2.171875 136.453125 0 141.09375 0 L 206.390625 0 C 210.71875 0 213.8125 -2.171875 213.8125 -5.875 L 213.8125 -7.109375 C 213.8125 -15.78125 201.125 -19.796875 200.5 -31.5625 Z M 101.484375 -104.578125 C 88.5 -104.578125 81.6875 -111.390625 81.6875 -129.34375 L 81.6875 -181.9375 C 81.6875 -191.21875 86.328125 -198.03125 93.453125 -198.03125 L 99.015625 -198.03125 C 117.890625 -198.03125 138.625 -177.296875 138.625 -143.875 C 138.625 -117.265625 125.9375 -104.578125 110.15625 -104.578125 Z M 101.484375 -104.578125 "/></g></g></g><g fill="#006c3f" fill-opacity="1"><g transform="translate(661.236583, 284.843496)"><g><path d="M 102.109375 3.09375 C 147.90625 3.09375 187.203125 -20.109375 187.203125 -60.953125 C 187.203125 -147.59375 66.21875 -108.921875 66.21875 -175.125 C 66.21875 -190.296875 75.5 -202.359375 95 -202.359375 C 133.359375 -202.359375 123.765625 -144.5 161.203125 -144.5 C 176.984375 -144.5 184.71875 -153.46875 184.71875 -167.09375 C 185.03125 -195.25 147.28125 -222.46875 95.921875 -222.46875 C 44.859375 -222.46875 12.0625 -194.9375 12.0625 -155.640625 C 12.375 -64.984375 133.671875 -103.34375 133.671875 -43.015625 C 133.671875 -26.921875 122.21875 -17.328125 104.28125 -17.328125 C 57.859375 -17.328125 64.046875 -74.875 30.625 -75.1875 C 15.15625 -75.1875 8.359375 -66.21875 8.359375 -53.21875 C 8.359375 -25.6875 45.484375 3.09375 102.109375 3.09375 Z M 102.109375 3.09375 "/></g></g></g><g fill="#006c3f" fill-opacity="1"><g transform="translate(857.410626, 284.843496)"><g><path d="M 212.265625 -34.03125 L 212.265625 -213.8125 C 212.265625 -219.375 207.625 -221.234375 198.34375 -220 L 152.546875 -213.8125 C 148.21875 -213.1875 142.640625 -210.09375 142.640625 -206.6875 L 142.640625 -205.453125 C 142.640625 -197.71875 157.8125 -193.703125 157.8125 -179.46875 L 157.8125 -73.03125 C 157.8125 -43.625 145.421875 -17.328125 114.484375 -17.328125 C 92.515625 -17.328125 78.28125 -37.125 78.59375 -72.71875 L 79.515625 -213.8125 C 79.515625 -219.375 73.953125 -221.234375 64.671875 -220 L 16.09375 -213.8125 C 11.765625 -213.1875 8.96875 -210.09375 8.96875 -206.6875 L 8.96875 -205.453125 C 8.96875 -197.71875 21.34375 -193.703125 21.34375 -179.46875 L 21.34375 -80.765625 C 21.34375 -26.921875 52.296875 3.09375 98.703125 3.09375 C 133.671875 3.09375 153.78125 -8.96875 164 -28.78125 C 165.234375 -3.09375 173.890625 1.859375 194 1.859375 C 214.125 1.859375 226.1875 -0.3125 226.1875 -8.359375 C 226.1875 -21.34375 212.265625 -8.96875 212.265625 -34.03125 Z M 212.265625 -34.03125 "/></g></g></g><g fill="#006c3f" fill-opacity="1"><g transform="translate(1093.809725, 284.843496)"><g><path d="M 102.109375 3.09375 C 147.90625 3.09375 187.203125 -20.109375 187.203125 -60.953125 C 187.203125 -147.59375 66.21875 -108.921875 66.21875 -175.125 C 66.21875 -190.296875 75.5 -202.359375 95 -202.359375 C 133.359375 -202.359375 123.765625 -144.5 161.203125 -144.5 C 176.984375 -144.5 184.71875 -153.46875 184.71875 -167.09375 C 185.03125 -195.25 147.28125 -222.46875 95.921875 -222.46875 C 44.859375 -222.46875 12.0625 -194.9375 12.0625 -155.640625 C 12.375 -64.984375 133.671875 -103.34375 133.671875 -43.015625 C 133.671875 -26.921875 122.21875 -17.328125 104.28125 -17.328125 C 57.859375 -17.328125 64.046875 -74.875 30.625 -75.1875 C 15.15625 -75.1875 8.359375 -66.21875 8.359375 -53.21875 C 8.359375 -25.6875 45.484375 3.09375 102.109375 3.09375 Z M 102.109375 3.09375 "/></g></g></g></svg>